# xmcd CD database file
#
# Track frame offsets:
#	150
#	38718
#	49451
#	77782
#
# Disc length: 1497 seconds
#
# Revision: 0
# Processed by: cddbd v1.5.1PL0 Copyright (c) Steve Scherf et al.
# Submitted via: CDex 1.51
#
DISCID=2d05d704
DTITLE=Ettrick - Demo
DYEAR=2005
DGENRE=Jazz
TTITLE0=1
TTITLE1=2
TTITLE2=3
TTITLE3=4
EXTD=YEAR: 2005
EXTT0=
EXTT1=
EXTT2=
EXTT3=
PLAYORDER=
